<svg height="8126" width="720" xmlns="http://www.w3.org/2000/svg">
<rect height="8126" fill="#555" width="720"></rect>
<text fill="#7f7" font-family="Courier New" font-size="12" xml:space="preserve">
<tspan x="10" y="26">116 megabytes installed</tspan>
<tspan x="10" y="42"></tspan>
<tspan x="10" y="58">node_modules</tspan>
<tspan x="10" y="74">└─┬ grunt-grunticon@2.3.1 </tspan>
<tspan x="10" y="90">  └─┬ grunticon-lib@1.2.1 </tspan>
<tspan x="10" y="106">    ├─┬ directory-colorfy@2.2.0 </tspan>
<tspan x="10" y="122">    │ ├─┬ @filamentgroup/worker-farm@1.3.2 </tspan>
<tspan x="10" y="138">    │ │ ├─┬ errno@0.1.4 </tspan>
<tspan x="10" y="154">    │ │ │ └── prr@0.0.0 </tspan>
<tspan x="10" y="170">    │ │ └── xtend@4.0.1 </tspan>
<tspan x="10" y="186">    │ ├─┬ fs-extra@0.6.3 </tspan>
<tspan x="10" y="202">    │ │ ├── jsonfile@1.0.1 </tspan>
<tspan x="10" y="218">    │ │ ├── mkdirp@0.3.5 </tspan>
<tspan x="10" y="234">    │ │ └── ncp@0.4.2 </tspan>
<tspan x="10" y="250">    │ ├─┬ phantomjs-prebuilt@2.1.7 </tspan>
<tspan x="10" y="266">    │ │ ├─┬ extract-zip@1.5.0 </tspan>
<tspan x="10" y="282">    │ │ │ ├── debug@0.7.4 </tspan>
<tspan x="10" y="298">    │ │ │ ├── mkdirp@0.5.0 </tspan>
<tspan x="10" y="314">    │ │ │ └─┬ yauzl@2.4.1 </tspan>
<tspan x="10" y="330">    │ │ │   └─┬ fd-slicer@1.0.1 </tspan>
<tspan x="10" y="346">    │ │ │     └── pend@1.2.0 </tspan>
<tspan x="10" y="362">    │ │ ├─┬ fs-extra@0.26.7 </tspan>
<tspan x="10" y="378">    │ │ │ ├── jsonfile@2.4.0 </tspan>
<tspan x="10" y="394">    │ │ │ └── klaw@1.3.1 </tspan>
<tspan x="10" y="410">    │ │ ├─┬ hasha@2.2.0 </tspan>
<tspan x="10" y="426">    │ │ │ ├── is-stream@1.1.0 </tspan>
<tspan x="10" y="442">    │ │ │ └─┬ pinkie-promise@2.0.1 </tspan>
<tspan x="10" y="458">    │ │ │   └── pinkie@2.0.4 </tspan>
<tspan x="10" y="474">    │ │ ├── kew@0.7.0 </tspan>
<tspan x="10" y="490">    │ │ ├── progress@1.1.8 </tspan>
<tspan x="10" y="506">    │ │ ├─┬ request@2.67.0 </tspan>
<tspan x="10" y="522">    │ │ │ ├── aws-sign2@0.6.0 </tspan>
<tspan x="10" y="538">    │ │ │ ├── bl@1.0.3 </tspan>
<tspan x="10" y="554">    │ │ │ ├── caseless@0.11.0 </tspan>
<tspan x="10" y="570">    │ │ │ ├─┬ combined-stream@1.0.5 </tspan>
<tspan x="10" y="586">    │ │ │ │ └── delayed-stream@1.0.0 </tspan>
<tspan x="10" y="602">    │ │ │ ├── extend@3.0.0 </tspan>
<tspan x="10" y="618">    │ │ │ ├── forever-agent@0.6.1 </tspan>
<tspan x="10" y="634">    │ │ │ ├─┬ form-data@1.0.1 </tspan>
<tspan x="10" y="650">    │ │ │ │ └─┬ async@2.3.0 </tspan>
<tspan x="10" y="666">    │ │ │ │   └── lodash@4.17.4 </tspan>
<tspan x="10" y="682">    │ │ │ ├─┬ har-validator@2.0.6 </tspan>
<tspan x="10" y="698">    │ │ │ │ ├─┬ chalk@1.1.3 </tspan>
<tspan x="10" y="714">    │ │ │ │ │ ├── ansi-styles@2.2.1 </tspan>
<tspan x="10" y="730">    │ │ │ │ │ ├── escape-string-regexp@1.0.5 </tspan>
<tspan x="10" y="746">    │ │ │ │ │ ├─┬ has-ansi@2.0.0 </tspan>
<tspan x="10" y="762">    │ │ │ │ │ │ └── ansi-regex@2.1.1 </tspan>
<tspan x="10" y="778">    │ │ │ │ │ ├── strip-ansi@3.0.1 </tspan>
<tspan x="10" y="794">    │ │ │ │ │ └── supports-color@2.0.0 </tspan>
<tspan x="10" y="810">    │ │ │ │ ├─┬ commander@2.9.0 </tspan>
<tspan x="10" y="826">    │ │ │ │ │ └── graceful-readlink@1.0.1 </tspan>
<tspan x="10" y="842">    │ │ │ │ └─┬ is-my-json-valid@2.16.0 </tspan>
<tspan x="10" y="858">    │ │ │ │   ├── generate-function@2.0.0 </tspan>
<tspan x="10" y="874">    │ │ │ │   ├─┬ generate-object-property@1.2.0 </tspan>
<tspan x="10" y="890">    │ │ │ │   │ └── is-property@1.0.2 </tspan>
<tspan x="10" y="906">    │ │ │ │   └── jsonpointer@4.0.1 </tspan>
<tspan x="10" y="922">    │ │ │ ├─┬ hawk@3.1.3 </tspan>
<tspan x="10" y="938">    │ │ │ │ ├── boom@2.10.1 </tspan>
<tspan x="10" y="954">    │ │ │ │ ├── cryptiles@2.0.5 </tspan>
<tspan x="10" y="970">    │ │ │ │ ├── hoek@2.16.3 </tspan>
<tspan x="10" y="986">    │ │ │ │ └── sntp@1.0.9 </tspan>
<tspan x="10" y="1002">    │ │ │ ├─┬ http-signature@1.1.1 </tspan>
<tspan x="10" y="1018">    │ │ │ │ ├── assert-plus@0.2.0 </tspan>
<tspan x="10" y="1034">    │ │ │ │ ├─┬ jsprim@1.4.0 </tspan>
<tspan x="10" y="1050">    │ │ │ │ │ ├── assert-plus@1.0.0 </tspan>
<tspan x="10" y="1066">    │ │ │ │ │ ├── extsprintf@1.0.2 </tspan>
<tspan x="10" y="1082">    │ │ │ │ │ ├── json-schema@0.2.3 </tspan>
<tspan x="10" y="1098">    │ │ │ │ │ └── verror@1.3.6 </tspan>
<tspan x="10" y="1114">    │ │ │ │ └─┬ sshpk@1.13.0 </tspan>
<tspan x="10" y="1130">    │ │ │ │   ├── asn1@0.2.3 </tspan>
<tspan x="10" y="1146">    │ │ │ │   ├── assert-plus@1.0.0 </tspan>
<tspan x="10" y="1162">    │ │ │ │   ├── bcrypt-pbkdf@1.0.1 </tspan>
<tspan x="10" y="1178">    │ │ │ │   ├─┬ dashdash@1.14.1 </tspan>
<tspan x="10" y="1194">    │ │ │ │   │ └── assert-plus@1.0.0 </tspan>
<tspan x="10" y="1210">    │ │ │ │   ├── ecc-jsbn@0.1.1 </tspan>
<tspan x="10" y="1226">    │ │ │ │   ├─┬ getpass@0.1.6 </tspan>
<tspan x="10" y="1242">    │ │ │ │   │ └── assert-plus@1.0.0 </tspan>
<tspan x="10" y="1258">    │ │ │ │   ├── jodid25519@1.0.2 </tspan>
<tspan x="10" y="1274">    │ │ │ │   ├── jsbn@0.1.1 </tspan>
<tspan x="10" y="1290">    │ │ │ │   └── tweetnacl@0.14.5 </tspan>
<tspan x="10" y="1306">    │ │ │ ├── is-typedarray@1.0.0 </tspan>
<tspan x="10" y="1322">    │ │ │ ├── isstream@0.1.2 </tspan>
<tspan x="10" y="1338">    │ │ │ ├── json-stringify-safe@5.0.1 </tspan>
<tspan x="10" y="1354">    │ │ │ ├─┬ mime-types@2.1.15 </tspan>
<tspan x="10" y="1370">    │ │ │ │ └── mime-db@1.27.0 </tspan>
<tspan x="10" y="1386">    │ │ │ ├── node-uuid@1.4.8 </tspan>
<tspan x="10" y="1402">    │ │ │ ├── oauth-sign@0.8.2 </tspan>
<tspan x="10" y="1418">    │ │ │ ├── qs@5.2.1 </tspan>
<tspan x="10" y="1434">    │ │ │ ├── stringstream@0.0.5 </tspan>
<tspan x="10" y="1450">    │ │ │ ├── tough-cookie@2.2.2 </tspan>
<tspan x="10" y="1466">    │ │ │ └── tunnel-agent@0.4.3 </tspan>
<tspan x="10" y="1482">    │ │ ├─┬ request-progress@2.0.1 </tspan>
<tspan x="10" y="1498">    │ │ │ └── throttleit@1.0.0 </tspan>
<tspan x="10" y="1514">    │ │ └─┬ which@1.2.14 </tspan>
<tspan x="10" y="1530">    │ │   └── isexe@2.0.0 </tspan>
<tspan x="10" y="1546">    │ └── rsvp@3.0.15 </tspan>
<tspan x="10" y="1562">    ├─┬ directory-encoder@0.7.2 </tspan>
<tspan x="10" y="1578">    │ ├─┬ fs-extra@0.23.1 </tspan>
<tspan x="10" y="1594">    │ │ ├── graceful-fs@4.1.11 </tspan>
<tspan x="10" y="1610">    │ │ ├── jsonfile@2.4.0 </tspan>
<tspan x="10" y="1626">    │ │ └── path-is-absolute@1.0.1 </tspan>
<tspan x="10" y="1642">    │ ├─┬ handlebars@1.3.0 </tspan>
<tspan x="10" y="1658">    │ │ ├── optimist@0.3.7 </tspan>
<tspan x="10" y="1674">    │ │ └─┬ uglify-js@2.3.6 </tspan>
<tspan x="10" y="1690">    │ │   └── async@0.2.10 </tspan>
<tspan x="10" y="1706">    │ └── img-stats@0.5.2 </tspan>
<tspan x="10" y="1722">    ├── fg-loadcss@0.1.8 </tspan>
<tspan x="10" y="1738">    ├─┬ fs-extra@0.16.5 </tspan>
<tspan x="10" y="1754">    │ ├─┬ graceful-fs@3.0.11 </tspan>
<tspan x="10" y="1770">    │ │ └── natives@1.1.0 </tspan>
<tspan x="10" y="1786">    │ ├─┬ jsonfile@2.4.0 </tspan>
<tspan x="10" y="1802">    │ │ └── graceful-fs@4.1.11 </tspan>
<tspan x="10" y="1818">    │ └── rimraf@2.2.8 </tspan>
<tspan x="10" y="1834">    ├─┬ handlebars@3.0.3 </tspan>
<tspan x="10" y="1850">    │ ├─┬ optimist@0.6.1 </tspan>
<tspan x="10" y="1866">    │ │ ├── minimist@0.0.8 </tspan>
<tspan x="10" y="1882">    │ │ └── wordwrap@0.0.3 </tspan>
<tspan x="10" y="1898">    │ ├─┬ source-map@0.1.43 </tspan>
<tspan x="10" y="1914">    │ │ └── amdefine@1.0.1 </tspan>
<tspan x="10" y="1930">    │ └─┬ uglify-js@2.3.6 </tspan>
<tspan x="10" y="1946">    │   ├── async@0.2.10 </tspan>
<tspan x="10" y="1962">    │   └── optimist@0.3.7 </tspan>
<tspan x="10" y="1978">    ├── lodash@3.10.1 </tspan>
<tspan x="10" y="1994">    ├─┬ merge-defaults@0.2.1 </tspan>
<tspan x="10" y="2010">    │ └── lodash@2.4.2 </tspan>
<tspan x="10" y="2026">    ├─┬ svg-to-png@3.1.2 </tspan>
<tspan x="10" y="2042">    │ └─┬ imagemin@3.1.0 </tspan>
<tspan x="10" y="2058">    │   ├─┬ concat-stream@1.5.0 </tspan>
<tspan x="10" y="2074">    │   │ ├── inherits@2.0.3 </tspan>
<tspan x="10" y="2090">    │   │ ├─┬ readable-stream@2.0.6 </tspan>
<tspan x="10" y="2106">    │   │ │ ├── core-util-is@1.0.2 </tspan>
<tspan x="10" y="2122">    │   │ │ ├── isarray@1.0.0 </tspan>
<tspan x="10" y="2138">    │   │ │ ├── process-nextick-args@1.0.7 </tspan>
<tspan x="10" y="2154">    │   │ │ ├── string_decoder@0.10.31 </tspan>
<tspan x="10" y="2170">    │   │ │ └── util-deprecate@1.0.2 </tspan>
<tspan x="10" y="2186">    │   │ └── typedarray@0.0.6 </tspan>
<tspan x="10" y="2202">    │   ├── get-stdin@3.0.2 </tspan>
<tspan x="10" y="2218">    │   ├─┬ imagemin-gifsicle@4.2.0 </tspan>
<tspan x="10" y="2234">    │   │ ├─┬ gifsicle@3.0.4 </tspan>
<tspan x="10" y="2250">    │   │ │ ├─┬ bin-build@2.2.0 </tspan>
<tspan x="10" y="2266">    │   │ │ │ ├─┬ archive-type@3.2.0 </tspan>
<tspan x="10" y="2282">    │   │ │ │ │ └── file-type@3.9.0 </tspan>
<tspan x="10" y="2298">    │   │ │ │ ├─┬ decompress@3.0.0 </tspan>
<tspan x="10" y="2314">    │   │ │ │ │ ├─┬ buffer-to-vinyl@1.1.0 </tspan>
<tspan x="10" y="2330">    │   │ │ │ │ │ └── vinyl@1.2.0 </tspan>
<tspan x="10" y="2346">    │   │ │ │ │ ├─┬ decompress-tar@3.1.0 </tspan>
<tspan x="10" y="2362">    │   │ │ │ │ │ ├── is-tar@1.0.0 </tspan>
<tspan x="10" y="2378">    │   │ │ │ │ │ ├─┬ strip-dirs@1.1.1 </tspan>
<tspan x="10" y="2394">    │   │ │ │ │ │ │ ├── get-stdin@4.0.1 </tspan>
<tspan x="10" y="2410">    │   │ │ │ │ │ │ ├─┬ is-absolute@0.1.7 </tspan>
<tspan x="10" y="2426">    │   │ │ │ │ │ │ │ └── is-relative@0.1.3 </tspan>
<tspan x="10" y="2442">    │   │ │ │ │ │ │ ├── is-natural-number@2.1.1 </tspan>
<tspan x="10" y="2458">    │   │ │ │ │ │ │ ├── minimist@1.2.0 </tspan>
<tspan x="10" y="2474">    │   │ │ │ │ │ │ └── sum-up@1.0.3 </tspan>
<tspan x="10" y="2490">    │   │ │ │ │ │ └─┬ tar-stream@1.5.2 </tspan>
<tspan x="10" y="2506">    │   │ │ │ │ │   └── end-of-stream@1.4.0 </tspan>
<tspan x="10" y="2522">    │   │ │ │ │ ├─┬ decompress-tarbz2@3.1.0 </tspan>
<tspan x="10" y="2538">    │   │ │ │ │ │ ├── is-bzip2@1.0.0 </tspan>
<tspan x="10" y="2554">    │   │ │ │ │ │ └─┬ seek-bzip@1.0.5 </tspan>
<tspan x="10" y="2570">    │   │ │ │ │ │   └── commander@2.8.1 </tspan>
<tspan x="10" y="2586">    │   │ │ │ │ ├─┬ decompress-targz@3.1.0 </tspan>
<tspan x="10" y="2602">    │   │ │ │ │ │ └── is-gzip@1.0.0 </tspan>
<tspan x="10" y="2618">    │   │ │ │ │ ├─┬ decompress-unzip@3.4.0 </tspan>
<tspan x="10" y="2634">    │   │ │ │ │ │ ├── is-zip@1.0.0 </tspan>
<tspan x="10" y="2650">    │   │ │ │ │ │ ├── stat-mode@0.2.2 </tspan>
<tspan x="10" y="2666">    │   │ │ │ │ │ ├─┬ through2@2.0.3 </tspan>
<tspan x="10" y="2682">    │   │ │ │ │ │ │ └─┬ readable-stream@2.2.9 </tspan>
<tspan x="10" y="2698">    │   │ │ │ │ │ │   └── string_decoder@1.0.0 </tspan>
<tspan x="10" y="2714">    │   │ │ │ │ │ └── vinyl@1.2.0 </tspan>
<tspan x="10" y="2730">    │   │ │ │ │ ├─┬ stream-combiner2@1.1.1 </tspan>
<tspan x="10" y="2746">    │   │ │ │ │ │ └── duplexer2@0.1.4 </tspan>
<tspan x="10" y="2762">    │   │ │ │ │ ├─┬ vinyl-assign@1.2.1 </tspan>
<tspan x="10" y="2778">    │   │ │ │ │ │ └── object-assign@4.1.1 </tspan>
<tspan x="10" y="2794">    │   │ │ │ │ └─┬ vinyl-fs@2.4.4 </tspan>
<tspan x="10" y="2810">    │   │ │ │ │   ├─┬ duplexify@3.5.0 </tspan>
<tspan x="10" y="2826">    │   │ │ │ │   │ ├─┬ end-of-stream@1.0.0 </tspan>
<tspan x="10" y="2842">    │   │ │ │ │   │ │ └── once@1.3.3 </tspan>
<tspan x="10" y="2858">    │   │ │ │ │   │ └── stream-shift@1.0.0 </tspan>
<tspan x="10" y="2874">    │   │ │ │ │   ├─┬ glob-stream@5.3.5 </tspan>
<tspan x="10" y="2890">    │   │ │ │ │   │ ├─┬ glob@5.0.15 </tspan>
<tspan x="10" y="2906">    │   │ │ │ │   │ │ └── minimatch@3.0.3 </tspan>
<tspan x="10" y="2922">    │   │ │ │ │   │ ├─┬ glob-parent@3.1.0 </tspan>
<tspan x="10" y="2938">    │   │ │ │ │   │ │ ├─┬ is-glob@3.1.0 </tspan>
<tspan x="10" y="2954">    │   │ │ │ │   │ │ │ └── is-extglob@2.1.1 </tspan>
<tspan x="10" y="2970">    │   │ │ │ │   │ │ └── path-dirname@1.0.2 </tspan>
<tspan x="10" y="2986">    │   │ │ │ │   │ ├─┬ micromatch@2.3.11 </tspan>
<tspan x="10" y="3002">    │   │ │ │ │   │ │ ├─┬ arr-diff@2.0.0 </tspan>
<tspan x="10" y="3018">    │   │ │ │ │   │ │ │ └── arr-flatten@1.0.3 </tspan>
<tspan x="10" y="3034">    │   │ │ │ │   │ │ ├── array-unique@0.2.1 </tspan>
<tspan x="10" y="3050">    │   │ │ │ │   │ │ ├─┬ braces@1.8.5 </tspan>
<tspan x="10" y="3066">    │   │ │ │ │   │ │ │ ├─┬ expand-range@1.8.2 </tspan>
<tspan x="10" y="3082">    │   │ │ │ │   │ │ │ │ └─┬ fill-range@2.2.3 </tspan>
<tspan x="10" y="3098">    │   │ │ │ │   │ │ │ │   ├── is-number@2.1.0 </tspan>
<tspan x="10" y="3114">    │   │ │ │ │   │ │ │ │   ├── isobject@2.1.0 </tspan>
<tspan x="10" y="3130">    │   │ │ │ │   │ │ │ │   └── randomatic@1.1.6 </tspan>
<tspan x="10" y="3146">    │   │ │ │ │   │ │ │ ├── preserve@0.2.0 </tspan>
<tspan x="10" y="3162">    │   │ │ │ │   │ │ │ └── repeat-element@1.1.2 </tspan>
<tspan x="10" y="3178">    │   │ │ │ │   │ │ ├─┬ expand-brackets@0.1.5 </tspan>
<tspan x="10" y="3194">    │   │ │ │ │   │ │ │ └── is-posix-bracket@0.1.1 </tspan>
<tspan x="10" y="3210">    │   │ │ │ │   │ │ ├─┬ extglob@0.3.2 </tspan>
<tspan x="10" y="3226">    │   │ │ │ │   │ │ │ └── is-extglob@1.0.0 </tspan>
<tspan x="10" y="3242">    │   │ │ │ │   │ │ ├── filename-regex@2.0.0 </tspan>
<tspan x="10" y="3258">    │   │ │ │ │   │ │ ├── is-extglob@1.0.0 </tspan>
<tspan x="10" y="3274">    │   │ │ │ │   │ │ ├── is-glob@2.0.1 </tspan>
<tspan x="10" y="3290">    │   │ │ │ │   │ │ ├─┬ normalize-path@2.1.1 </tspan>
<tspan x="10" y="3306">    │   │ │ │ │   │ │ │ └── remove-trailing-separator@1.0.1 </tspan>
<tspan x="10" y="3322">    │   │ │ │ │   │ │ ├─┬ object.omit@2.0.1 </tspan>
<tspan x="10" y="3338">    │   │ │ │ │   │ │ │ ├─┬ for-own@0.1.5 </tspan>
<tspan x="10" y="3354">    │   │ │ │ │   │ │ │ │ └── for-in@1.0.2 </tspan>
<tspan x="10" y="3370">    │   │ │ │ │   │ │ │ └── is-extendable@0.1.1 </tspan>
<tspan x="10" y="3386">    │   │ │ │ │   │ │ ├─┬ parse-glob@3.0.4 </tspan>
<tspan x="10" y="3402">    │   │ │ │ │   │ │ │ ├─┬ glob-base@0.3.0 </tspan>
<tspan x="10" y="3418">    │   │ │ │ │   │ │ │ │ ├── glob-parent@2.0.0 </tspan>
<tspan x="10" y="3434">    │   │ │ │ │   │ │ │ │ └─┬ is-glob@2.0.1 </tspan>
<tspan x="10" y="3450">    │   │ │ │ │   │ │ │ │   └── is-extglob@1.0.0 </tspan>
<tspan x="10" y="3466">    │   │ │ │ │   │ │ │ ├── is-dotfile@1.0.2 </tspan>
<tspan x="10" y="3482">    │   │ │ │ │   │ │ │ ├── is-extglob@1.0.0 </tspan>
<tspan x="10" y="3498">    │   │ │ │ │   │ │ │ └── is-glob@2.0.1 </tspan>
<tspan x="10" y="3514">    │   │ │ │ │   │ │ └─┬ regex-cache@0.4.3 </tspan>
<tspan x="10" y="3530">    │   │ │ │ │   │ │   ├── is-equal-shallow@0.1.3 </tspan>
<tspan x="10" y="3546">    │   │ │ │ │   │ │   └── is-primitive@2.0.0 </tspan>
<tspan x="10" y="3562">    │   │ │ │ │   │ ├── ordered-read-streams@0.3.0 </tspan>
<tspan x="10" y="3578">    │   │ │ │ │   │ ├─┬ to-absolute-glob@0.1.1 </tspan>
<tspan x="10" y="3594">    │   │ │ │ │   │ │ └── extend-shallow@2.0.1 </tspan>
<tspan x="10" y="3610">    │   │ │ │ │   │ └─┬ unique-stream@2.2.1 </tspan>
<tspan x="10" y="3626">    │   │ │ │ │   │   └─┬ json-stable-stringify@1.0.1 </tspan>
<tspan x="10" y="3642">    │   │ │ │ │   │     └── jsonify@0.0.0 </tspan>
<tspan x="10" y="3658">    │   │ │ │ │   ├─┬ gulp-sourcemaps@1.6.0 </tspan>
<tspan x="10" y="3674">    │   │ │ │ │   │ ├── convert-source-map@1.5.0 </tspan>
<tspan x="10" y="3690">    │   │ │ │ │   │ ├─┬ through2@2.0.3 </tspan>
<tspan x="10" y="3706">    │   │ │ │ │   │ │ └─┬ readable-stream@2.2.9 </tspan>
<tspan x="10" y="3722">    │   │ │ │ │   │ │   └── string_decoder@1.0.0 </tspan>
<tspan x="10" y="3738">    │   │ │ │ │   │ └── vinyl@1.2.0 </tspan>
<tspan x="10" y="3754">    │   │ │ │ │   ├── is-valid-glob@0.3.0 </tspan>
<tspan x="10" y="3770">    │   │ │ │ │   ├── lazystream@1.0.0 </tspan>
<tspan x="10" y="3786">    │   │ │ │ │   ├── lodash.isequal@4.5.0 </tspan>
<tspan x="10" y="3802">    │   │ │ │ │   ├── merge-stream@1.0.1 </tspan>
<tspan x="10" y="3818">    │   │ │ │ │   ├── mkdirp@0.5.1 </tspan>
<tspan x="10" y="3834">    │   │ │ │ │   ├── object-assign@4.1.1 </tspan>
<tspan x="10" y="3850">    │   │ │ │ │   ├── strip-bom@2.0.0 </tspan>
<tspan x="10" y="3866">    │   │ │ │ │   ├── strip-bom-stream@1.0.0 </tspan>
<tspan x="10" y="3882">    │   │ │ │ │   ├─┬ through2@2.0.3 </tspan>
<tspan x="10" y="3898">    │   │ │ │ │   │ └─┬ readable-stream@2.2.9 </tspan>
<tspan x="10" y="3914">    │   │ │ │ │   │   └── string_decoder@1.0.0 </tspan>
<tspan x="10" y="3930">    │   │ │ │ │   ├─┬ through2-filter@2.0.0 </tspan>
<tspan x="10" y="3946">    │   │ │ │ │   │ └─┬ through2@2.0.3 </tspan>
<tspan x="10" y="3962">    │   │ │ │ │   │   └─┬ readable-stream@2.2.9 </tspan>
<tspan x="10" y="3978">    │   │ │ │ │   │     └── string_decoder@1.0.0 </tspan>
<tspan x="10" y="3994">    │   │ │ │ │   ├── vali-date@1.0.0 </tspan>
<tspan x="10" y="4010">    │   │ │ │ │   └── vinyl@1.2.0 </tspan>
<tspan x="10" y="4026">    │   │ │ │ ├─┬ download@4.4.3 </tspan>
<tspan x="10" y="4042">    │   │ │ │ │ ├─┬ caw@1.2.0 </tspan>
<tspan x="10" y="4058">    │   │ │ │ │ │ ├─┬ get-proxy@1.1.0 </tspan>
<tspan x="10" y="4074">    │   │ │ │ │ │ │ └─┬ rc@1.2.1 </tspan>
<tspan x="10" y="4090">    │   │ │ │ │ │ │   ├── deep-extend@0.4.1 </tspan>
<tspan x="10" y="4106">    │   │ │ │ │ │ │   ├── ini@1.3.4 </tspan>
<tspan x="10" y="4122">    │   │ │ │ │ │ │   ├── minimist@1.2.0 </tspan>
<tspan x="10" y="4138">    │   │ │ │ │ │ │   └── strip-json-comments@2.0.1 </tspan>
<tspan x="10" y="4154">    │   │ │ │ │ │ ├── is-obj@1.0.1 </tspan>
<tspan x="10" y="4170">    │   │ │ │ │ │ └── object-assign@3.0.0 </tspan>
<tspan x="10" y="4186">    │   │ │ │ │ ├─┬ filenamify@1.2.1 </tspan>
<tspan x="10" y="4202">    │   │ │ │ │ │ ├── filename-reserved-regex@1.0.0 </tspan>
<tspan x="10" y="4218">    │   │ │ │ │ │ ├── strip-outer@1.0.0 </tspan>
<tspan x="10" y="4234">    │   │ │ │ │ │ └── trim-repeated@1.0.0 </tspan>
<tspan x="10" y="4250">    │   │ │ │ │ ├─┬ got@5.7.1 </tspan>
<tspan x="10" y="4266">    │   │ │ │ │ │ ├─┬ create-error-class@3.0.2 </tspan>
<tspan x="10" y="4282">    │   │ │ │ │ │ │ └── capture-stack-trace@1.0.0 </tspan>
<tspan x="10" y="4298">    │   │ │ │ │ │ ├── is-redirect@1.0.0 </tspan>
<tspan x="10" y="4314">    │   │ │ │ │ │ ├── is-retry-allowed@1.1.0 </tspan>
<tspan x="10" y="4330">    │   │ │ │ │ │ ├── lowercase-keys@1.0.0 </tspan>
<tspan x="10" y="4346">    │   │ │ │ │ │ ├── node-status-codes@1.0.0 </tspan>
<tspan x="10" y="4362">    │   │ │ │ │ │ ├── object-assign@4.1.1 </tspan>
<tspan x="10" y="4378">    │   │ │ │ │ │ ├─┬ parse-json@2.2.0 </tspan>
<tspan x="10" y="4394">    │   │ │ │ │ │ │ └─┬ error-ex@1.3.1 </tspan>
<tspan x="10" y="4410">    │   │ │ │ │ │ │   └── is-arrayish@0.2.1 </tspan>
<tspan x="10" y="4426">    │   │ │ │ │ │ ├── timed-out@3.1.3 </tspan>
<tspan x="10" y="4442">    │   │ │ │ │ │ ├── unzip-response@1.0.2 </tspan>
<tspan x="10" y="4458">    │   │ │ │ │ │ └─┬ url-parse-lax@1.0.0 </tspan>
<tspan x="10" y="4474">    │   │ │ │ │ │   └── prepend-http@1.0.4 </tspan>
<tspan x="10" y="4490">    │   │ │ │ │ ├─┬ gulp-decompress@1.2.0 </tspan>
<tspan x="10" y="4506">    │   │ │ │ │ │ └─┬ gulp-util@3.0.8 </tspan>
<tspan x="10" y="4522">    │   │ │ │ │ │   ├── array-differ@1.0.0 </tspan>
<tspan x="10" y="4538">    │   │ │ │ │ │   ├── array-uniq@1.0.3 </tspan>
<tspan x="10" y="4554">    │   │ │ │ │ │   ├── beeper@1.1.1 </tspan>
<tspan x="10" y="4570">    │   │ │ │ │ │   ├── dateformat@2.0.0 </tspan>
<tspan x="10" y="4586">    │   │ │ │ │ │   ├─┬ fancy-log@1.3.0 </tspan>
<tspan x="10" y="4602">    │   │ │ │ │ │   │ └── time-stamp@1.0.1 </tspan>
<tspan x="10" y="4618">    │   │ │ │ │ │   ├─┬ gulplog@1.0.0 </tspan>
<tspan x="10" y="4634">    │   │ │ │ │ │   │ └── glogg@1.0.0 </tspan>
<tspan x="10" y="4650">    │   │ │ │ │ │   ├─┬ has-gulplog@0.1.0 </tspan>
<tspan x="10" y="4666">    │   │ │ │ │ │   │ └── sparkles@1.0.0 </tspan>
<tspan x="10" y="4682">    │   │ │ │ │ │   ├── lodash._reescape@3.0.0 </tspan>
<tspan x="10" y="4698">    │   │ │ │ │ │   ├── lodash._reevaluate@3.0.0 </tspan>
<tspan x="10" y="4714">    │   │ │ │ │ │   ├── lodash._reinterpolate@3.0.0 </tspan>
<tspan x="10" y="4730">    │   │ │ │ │ │   ├─┬ lodash.template@3.6.2 </tspan>
<tspan x="10" y="4746">    │   │ │ │ │ │   │ ├── lodash._basecopy@3.0.1 </tspan>
<tspan x="10" y="4762">    │   │ │ │ │ │   │ ├── lodash._basetostring@3.0.1 </tspan>
<tspan x="10" y="4778">    │   │ │ │ │ │   │ ├── lodash._basevalues@3.0.0 </tspan>
<tspan x="10" y="4794">    │   │ │ │ │ │   │ ├── lodash._isiterateecall@3.0.9 </tspan>
<tspan x="10" y="4810">    │   │ │ │ │ │   │ ├─┬ lodash.escape@3.2.0 </tspan>
<tspan x="10" y="4826">    │   │ │ │ │ │   │ │ └── lodash._root@3.0.1 </tspan>
<tspan x="10" y="4842">    │   │ │ │ │ │   │ ├─┬ lodash.keys@3.1.2 </tspan>
<tspan x="10" y="4858">    │   │ │ │ │ │   │ │ ├── lodash._getnative@3.9.1 </tspan>
<tspan x="10" y="4874">    │   │ │ │ │ │   │ │ ├── lodash.isarguments@3.1.0 </tspan>
<tspan x="10" y="4890">    │   │ │ │ │ │   │ │ └── lodash.isarray@3.0.4 </tspan>
<tspan x="10" y="4906">    │   │ │ │ │ │   │ ├── lodash.restparam@3.6.1 </tspan>
<tspan x="10" y="4922">    │   │ │ │ │ │   │ └── lodash.templatesettings@3.1.1 </tspan>
<tspan x="10" y="4938">    │   │ │ │ │ │   ├── minimist@1.2.0 </tspan>
<tspan x="10" y="4954">    │   │ │ │ │ │   ├─┬ multipipe@0.1.2 </tspan>
<tspan x="10" y="4970">    │   │ │ │ │ │   │ └─┬ duplexer2@0.0.2 </tspan>
<tspan x="10" y="4986">    │   │ │ │ │ │   │   └─┬ readable-stream@1.1.14 </tspan>
<tspan x="10" y="5002">    │   │ │ │ │ │   │     └── isarray@0.0.1 </tspan>
<tspan x="10" y="5018">    │   │ │ │ │ │   ├── object-assign@3.0.0 </tspan>
<tspan x="10" y="5034">    │   │ │ │ │ │   ├─┬ through2@2.0.3 </tspan>
<tspan x="10" y="5050">    │   │ │ │ │ │   │ └─┬ readable-stream@2.2.9 </tspan>
<tspan x="10" y="5066">    │   │ │ │ │ │   │   └── string_decoder@1.0.0 </tspan>
<tspan x="10" y="5082">    │   │ │ │ │ │   └── vinyl@0.5.3 </tspan>
<tspan x="10" y="5098">    │   │ │ │ │ ├── gulp-rename@1.2.2 </tspan>
<tspan x="10" y="5114">    │   │ │ │ │ ├── is-url@1.2.2 </tspan>
<tspan x="10" y="5130">    │   │ │ │ │ ├── object-assign@4.1.1 </tspan>
<tspan x="10" y="5146">    │   │ │ │ │ ├── read-all-stream@3.1.0 </tspan>
<tspan x="10" y="5162">    │   │ │ │ │ ├─┬ vinyl@1.2.0 </tspan>
<tspan x="10" y="5178">    │   │ │ │ │ │ └── replace-ext@0.0.1 </tspan>
<tspan x="10" y="5194">    │   │ │ │ │ ├─┬ vinyl-fs@2.4.4 </tspan>
<tspan x="10" y="5210">    │   │ │ │ │ │ ├── mkdirp@0.5.1 </tspan>
<tspan x="10" y="5226">    │   │ │ │ │ │ └─┬ through2@2.0.3 </tspan>
<tspan x="10" y="5242">    │   │ │ │ │ │   └─┬ readable-stream@2.2.9 </tspan>
<tspan x="10" y="5258">    │   │ │ │ │ │     └── string_decoder@1.0.0 </tspan>
<tspan x="10" y="5274">    │   │ │ │ │ └─┬ ware@1.3.0 </tspan>
<tspan x="10" y="5290">    │   │ │ │ │   └─┬ wrap-fn@0.1.5 </tspan>
<tspan x="10" y="5306">    │   │ │ │ │     └── co@3.1.0 </tspan>
<tspan x="10" y="5322">    │   │ │ │ ├─┬ exec-series@1.0.3 </tspan>
<tspan x="10" y="5338">    │   │ │ │ │ ├── async-each-series@1.1.0 </tspan>
<tspan x="10" y="5354">    │   │ │ │ │ └── object-assign@4.1.1 </tspan>
<tspan x="10" y="5370">    │   │ │ │ └─┬ url-regex@3.2.0 </tspan>
<tspan x="10" y="5386">    │   │ │ │   └── ip-regex@1.0.3 </tspan>
<tspan x="10" y="5402">    │   │ │ ├─┬ bin-wrapper@3.0.2 </tspan>
<tspan x="10" y="5418">    │   │ │ │ ├─┬ bin-check@2.0.0 </tspan>
<tspan x="10" y="5434">    │   │ │ │ │ └─┬ executable@1.1.0 </tspan>
<tspan x="10" y="5450">    │   │ │ │ │   └─┬ meow@3.7.0 </tspan>
<tspan x="10" y="5466">    │   │ │ │ │     ├─┬ camelcase-keys@2.1.0 </tspan>
<tspan x="10" y="5482">    │   │ │ │ │     │ └── camelcase@2.1.1 </tspan>
<tspan x="10" y="5498">    │   │ │ │ │     ├─┬ loud-rejection@1.6.0 </tspan>
<tspan x="10" y="5514">    │   │ │ │ │     │ ├─┬ currently-unhandled@0.4.1 </tspan>
<tspan x="10" y="5530">    │   │ │ │ │     │ │ └── array-find-index@1.0.2 </tspan>
<tspan x="10" y="5546">    │   │ │ │ │     │ └── signal-exit@3.0.2 </tspan>
<tspan x="10" y="5562">    │   │ │ │ │     ├── minimist@1.2.0 </tspan>
<tspan x="10" y="5578">    │   │ │ │ │     ├─┬ normalize-package-data@2.3.6 </tspan>
<tspan x="10" y="5594">    │   │ │ │ │     │ ├── hosted-git-info@2.4.2 </tspan>
<tspan x="10" y="5610">    │   │ │ │ │     │ ├─┬ is-builtin-module@1.0.0 </tspan>
<tspan x="10" y="5626">    │   │ │ │ │     │ │ └── builtin-modules@1.1.1 </tspan>
<tspan x="10" y="5642">    │   │ │ │ │     │ └─┬ validate-npm-package-license@3.0.1 </tspan>
<tspan x="10" y="5658">    │   │ │ │ │     │   ├─┬ spdx-correct@1.0.2 </tspan>
<tspan x="10" y="5674">    │   │ │ │ │     │   │ └── spdx-license-ids@1.2.2 </tspan>
<tspan x="10" y="5690">    │   │ │ │ │     │   └── spdx-expression-parse@1.0.4 </tspan>
<tspan x="10" y="5706">    │   │ │ │ │     ├── object-assign@4.1.1 </tspan>
<tspan x="10" y="5722">    │   │ │ │ │     ├─┬ read-pkg-up@1.0.1 </tspan>
<tspan x="10" y="5738">    │   │ │ │ │     │ ├─┬ find-up@1.1.2 </tspan>
<tspan x="10" y="5754">    │   │ │ │ │     │ │ └── path-exists@2.1.0 </tspan>
<tspan x="10" y="5770">    │   │ │ │ │     │ └─┬ read-pkg@1.1.0 </tspan>
<tspan x="10" y="5786">    │   │ │ │ │     │   ├─┬ load-json-file@1.1.0 </tspan>
<tspan x="10" y="5802">    │   │ │ │ │     │   │ └── pify@2.3.0 </tspan>
<tspan x="10" y="5818">    │   │ │ │ │     │   └── path-type@1.1.0 </tspan>
<tspan x="10" y="5834">    │   │ │ │ │     ├─┬ redent@1.0.0 </tspan>
<tspan x="10" y="5850">    │   │ │ │ │     │ ├─┬ indent-string@2.1.0 </tspan>
<tspan x="10" y="5866">    │   │ │ │ │     │ │ └── repeating@2.0.1 </tspan>
<tspan x="10" y="5882">    │   │ │ │ │     │ └─┬ strip-indent@1.0.1 </tspan>
<tspan x="10" y="5898">    │   │ │ │ │     │   └── get-stdin@4.0.1 </tspan>
<tspan x="10" y="5914">    │   │ │ │ │     └── trim-newlines@1.0.0 </tspan>
<tspan x="10" y="5930">    │   │ │ │ ├─┬ bin-version-check@2.1.0 </tspan>
<tspan x="10" y="5946">    │   │ │ │ │ ├─┬ bin-version@1.0.4 </tspan>
<tspan x="10" y="5962">    │   │ │ │ │ │ └─┬ find-versions@1.2.1 </tspan>
<tspan x="10" y="5978">    │   │ │ │ │ │   ├── get-stdin@4.0.1 </tspan>
<tspan x="10" y="5994">    │   │ │ │ │ │   ├─┬ meow@3.7.0 </tspan>
<tspan x="10" y="6010">    │   │ │ │ │ │   │ ├── minimist@1.2.0 </tspan>
<tspan x="10" y="6026">    │   │ │ │ │ │   │ └── object-assign@4.1.1 </tspan>
<tspan x="10" y="6042">    │   │ │ │ │ │   └── semver-regex@1.0.0 </tspan>
<tspan x="10" y="6058">    │   │ │ │ │ ├── minimist@1.2.0 </tspan>
<tspan x="10" y="6074">    │   │ │ │ │ ├── semver@4.3.6 </tspan>
<tspan x="10" y="6090">    │   │ │ │ │ └─┬ semver-truncate@1.1.2 </tspan>
<tspan x="10" y="6106">    │   │ │ │ │   └── semver@5.3.0 </tspan>
<tspan x="10" y="6122">    │   │ │ │ ├─┬ each-async@1.1.1 </tspan>
<tspan x="10" y="6138">    │   │ │ │ │ ├── onetime@1.1.0 </tspan>
<tspan x="10" y="6154">    │   │ │ │ │ └── set-immediate-shim@1.0.1 </tspan>
<tspan x="10" y="6170">    │   │ │ │ ├── lazy-req@1.1.0 </tspan>
<tspan x="10" y="6186">    │   │ │ │ └── os-filter-obj@1.0.3 </tspan>
<tspan x="10" y="6202">    │   │ │ └─┬ logalot@2.1.0 </tspan>
<tspan x="10" y="6218">    │   │ │   ├─┬ figures@1.7.0 </tspan>
<tspan x="10" y="6234">    │   │ │   │ └── object-assign@4.1.1 </tspan>
<tspan x="10" y="6250">    │   │ │   └─┬ squeak@1.3.0 </tspan>
<tspan x="10" y="6266">    │   │ │     ├── console-stream@0.1.1 </tspan>
<tspan x="10" y="6282">    │   │ │     └─┬ lpad-align@1.1.0 </tspan>
<tspan x="10" y="6298">    │   │ │       ├── get-stdin@4.0.1 </tspan>
<tspan x="10" y="6314">    │   │ │       ├── lpad@2.0.1 </tspan>
<tspan x="10" y="6330">    │   │ │       └─┬ meow@3.7.0 </tspan>
<tspan x="10" y="6346">    │   │ │         ├── minimist@1.2.0 </tspan>
<tspan x="10" y="6362">    │   │ │         └── object-assign@4.1.1 </tspan>
<tspan x="10" y="6378">    │   │ └── is-gif@1.0.0 </tspan>
<tspan x="10" y="6394">    │   ├─┬ imagemin-jpegtran@4.3.2 </tspan>
<tspan x="10" y="6410">    │   │ ├── is-jpg@1.0.0 </tspan>
<tspan x="10" y="6426">    │   │ ├── jpegtran-bin@3.2.0 </tspan>
<tspan x="10" y="6442">    │   │ └─┬ through2@2.0.3 </tspan>
<tspan x="10" y="6458">    │   │   └─┬ readable-stream@2.2.9 </tspan>
<tspan x="10" y="6474">    │   │     ├── buffer-shims@1.0.0 </tspan>
<tspan x="10" y="6490">    │   │     └── string_decoder@1.0.0 </tspan>
<tspan x="10" y="6506">    │   ├─┬ imagemin-optipng@4.3.0 </tspan>
<tspan x="10" y="6522">    │   │ ├─┬ exec-buffer@2.0.1 </tspan>
<tspan x="10" y="6538">    │   │ │ └─┬ tempfile@1.1.1 </tspan>
<tspan x="10" y="6554">    │   │ │   ├── os-tmpdir@1.0.2 </tspan>
<tspan x="10" y="6570">    │   │ │   └── uuid@2.0.3 </tspan>
<tspan x="10" y="6586">    │   │ ├── is-png@1.1.0 </tspan>
<tspan x="10" y="6602">    │   │ └── optipng-bin@3.1.4 </tspan>
<tspan x="10" y="6618">    │   ├─┬ imagemin-pngquant@4.2.2 </tspan>
<tspan x="10" y="6634">    │   │ ├── pngquant-bin@3.1.1 </tspan>
<tspan x="10" y="6650">    │   │ └─┬ through2@2.0.3 </tspan>
<tspan x="10" y="6666">    │   │   └─┬ readable-stream@2.2.9 </tspan>
<tspan x="10" y="6682">    │   │     └── string_decoder@1.0.0 </tspan>
<tspan x="10" y="6698">    │   ├─┬ imagemin-svgo@4.2.1 </tspan>
<tspan x="10" y="6714">    │   │ ├── is-svg@1.1.1 </tspan>
<tspan x="10" y="6730">    │   │ ├─┬ svgo@0.6.6 </tspan>
<tspan x="10" y="6746">    │   │ │ ├─┬ coa@1.0.1 </tspan>
<tspan x="10" y="6762">    │   │ │ │ └── q@1.5.0 </tspan>
<tspan x="10" y="6778">    │   │ │ ├── colors@1.1.2 </tspan>
<tspan x="10" y="6794">    │   │ │ ├─┬ csso@2.0.0 </tspan>
<tspan x="10" y="6810">    │   │ │ │ ├── clap@1.1.3 </tspan>
<tspan x="10" y="6826">    │   │ │ │ └── source-map@0.5.6 </tspan>
<tspan x="10" y="6842">    │   │ │ ├─┬ js-yaml@3.6.1 </tspan>
<tspan x="10" y="6858">    │   │ │ │ ├─┬ argparse@1.0.9 </tspan>
<tspan x="10" y="6874">    │   │ │ │ │ └── sprintf-js@1.0.3 </tspan>
<tspan x="10" y="6890">    │   │ │ │ └── esprima@2.7.3 </tspan>
<tspan x="10" y="6906">    │   │ │ ├── mkdirp@0.5.1 </tspan>
<tspan x="10" y="6922">    │   │ │ ├── sax@1.2.2 </tspan>
<tspan x="10" y="6938">    │   │ │ └── whet.extend@0.9.9 </tspan>
<tspan x="10" y="6954">    │   │ └─┬ through2@2.0.3 </tspan>
<tspan x="10" y="6970">    │   │   └─┬ readable-stream@2.2.9 </tspan>
<tspan x="10" y="6986">    │   │     └── string_decoder@1.0.0 </tspan>
<tspan x="10" y="7002">    │   ├─┬ meow@2.1.0 </tspan>
<tspan x="10" y="7018">    │   │ ├─┬ camelcase-keys@1.0.0 </tspan>
<tspan x="10" y="7034">    │   │ │ ├── camelcase@1.2.1 </tspan>
<tspan x="10" y="7050">    │   │ │ └── map-obj@1.0.1 </tspan>
<tspan x="10" y="7066">    │   │ ├─┬ indent-string@1.2.2 </tspan>
<tspan x="10" y="7082">    │   │ │ ├── get-stdin@4.0.1 </tspan>
<tspan x="10" y="7098">    │   │ │ └─┬ repeating@1.1.3 </tspan>
<tspan x="10" y="7114">    │   │ │   └─┬ is-finite@1.0.2 </tspan>
<tspan x="10" y="7130">    │   │ │     └── number-is-nan@1.0.1 </tspan>
<tspan x="10" y="7146">    │   │ ├── minimist@1.2.0 </tspan>
<tspan x="10" y="7162">    │   │ └── object-assign@2.1.1 </tspan>
<tspan x="10" y="7178">    │   ├── optional@0.1.3 </tspan>
<tspan x="10" y="7194">    │   ├─┬ stream-combiner@0.2.2 </tspan>
<tspan x="10" y="7210">    │   │ ├── duplexer@0.1.1 </tspan>
<tspan x="10" y="7226">    │   │ └── through@2.3.8 </tspan>
<tspan x="10" y="7242">    │   ├─┬ through2@0.6.5 </tspan>
<tspan x="10" y="7258">    │   │ └─┬ readable-stream@1.0.34 </tspan>
<tspan x="10" y="7274">    │   │   └── isarray@0.0.1 </tspan>
<tspan x="10" y="7290">    │   ├─┬ vinyl@0.4.6 </tspan>
<tspan x="10" y="7306">    │   │ ├── clone@0.2.0 </tspan>
<tspan x="10" y="7322">    │   │ └── clone-stats@0.0.1 </tspan>
<tspan x="10" y="7338">    │   └─┬ vinyl-fs@0.3.14 </tspan>
<tspan x="10" y="7354">    │     ├─┬ defaults@1.0.3 </tspan>
<tspan x="10" y="7370">    │     │ └── clone@1.0.2 </tspan>
<tspan x="10" y="7386">    │     ├─┬ glob-stream@3.1.18 </tspan>
<tspan x="10" y="7402">    │     │ ├─┬ glob@4.5.3 </tspan>
<tspan x="10" y="7418">    │     │ │ ├─┬ inflight@1.0.6 </tspan>
<tspan x="10" y="7434">    │     │ │ │ └── wrappy@1.0.2 </tspan>
<tspan x="10" y="7450">    │     │ │ └── once@1.4.0 </tspan>
<tspan x="10" y="7466">    │     │ ├─┬ glob2base@0.0.12 </tspan>
<tspan x="10" y="7482">    │     │ │ └── find-index@0.1.1 </tspan>
<tspan x="10" y="7498">    │     │ ├─┬ minimatch@2.0.10 </tspan>
<tspan x="10" y="7514">    │     │ │ └─┬ brace-expansion@1.1.7 </tspan>
<tspan x="10" y="7530">    │     │ │   ├── balanced-match@0.4.2 </tspan>
<tspan x="10" y="7546">    │     │ │   └── concat-map@0.0.1 </tspan>
<tspan x="10" y="7562">    │     │ ├── ordered-read-streams@0.1.0 </tspan>
<tspan x="10" y="7578">    │     │ └── unique-stream@1.0.0 </tspan>
<tspan x="10" y="7594">    │     ├─┬ glob-watcher@0.0.6 </tspan>
<tspan x="10" y="7610">    │     │ └─┬ gaze@0.5.2 </tspan>
<tspan x="10" y="7626">    │     │   └─┬ globule@0.1.0 </tspan>
<tspan x="10" y="7642">    │     │     ├─┬ glob@3.1.21 </tspan>
<tspan x="10" y="7658">    │     │     │ ├── graceful-fs@1.2.3 </tspan>
<tspan x="10" y="7674">    │     │     │ └── inherits@1.0.2 </tspan>
<tspan x="10" y="7690">    │     │     ├── lodash@1.0.2 </tspan>
<tspan x="10" y="7706">    │     │     └─┬ minimatch@0.2.14 </tspan>
<tspan x="10" y="7722">    │     │       ├── lru-cache@2.7.3 </tspan>
<tspan x="10" y="7738">    │     │       └── sigmund@1.0.1 </tspan>
<tspan x="10" y="7754">    │     ├── graceful-fs@3.0.11 </tspan>
<tspan x="10" y="7770">    │     ├── mkdirp@0.5.1 </tspan>
<tspan x="10" y="7786">    │     └─┬ strip-bom@1.0.0 </tspan>
<tspan x="10" y="7802">    │       ├── first-chunk-stream@1.0.0 </tspan>
<tspan x="10" y="7818">    │       └── is-utf8@0.2.1 </tspan>
<tspan x="10" y="7834">    ├─┬ uglify-js@2.8.22 </tspan>
<tspan x="10" y="7850">    │ ├── source-map@0.5.6 </tspan>
<tspan x="10" y="7866">    │ ├── uglify-to-browserify@1.0.2 </tspan>
<tspan x="10" y="7882">    │ └─┬ yargs@3.10.0 </tspan>
<tspan x="10" y="7898">    │   ├── camelcase@1.2.1 </tspan>
<tspan x="10" y="7914">    │   ├─┬ cliui@2.1.0 </tspan>
<tspan x="10" y="7930">    │   │ ├─┬ center-align@0.1.3 </tspan>
<tspan x="10" y="7946">    │   │ │ ├─┬ align-text@0.1.4 </tspan>
<tspan x="10" y="7962">    │   │ │ │ ├─┬ kind-of@3.1.0 </tspan>
<tspan x="10" y="7978">    │   │ │ │ │ └── is-buffer@1.1.5 </tspan>
<tspan x="10" y="7994">    │   │ │ │ ├── longest@1.0.1 </tspan>
<tspan x="10" y="8010">    │   │ │ │ └── repeat-string@1.6.1 </tspan>
<tspan x="10" y="8026">    │   │ │ └── lazy-cache@1.0.4 </tspan>
<tspan x="10" y="8042">    │   │ ├── right-align@0.1.3 </tspan>
<tspan x="10" y="8058">    │   │ └── wordwrap@0.0.2 </tspan>
<tspan x="10" y="8074">    │   ├── decamelize@1.2.0 </tspan>
<tspan x="10" y="8090">    │   └── window-size@0.1.0 </tspan>
<tspan x="10" y="8106">    └── xmldom@0.1.27</tspan>
</text>
</svg>
